<svg width="24" height="24" viewBox="0 0 24 24" fill="none" xmlns="http://www.w3.org/2000/svg">
<g clip-path="url(#clip0)">
<path d="M22.8046 18.6525C22.7018 18.3718 22.529 18.0939 22.284 17.8608C22.0225 17.6131 21.6752 17.348 21.2711 17.0624C20.6678 16.6368 19.9475 16.1807 19.303 15.8032C18.9808 15.6144 18.6778 15.4458 18.415 15.31C18.148 15.1733 17.9373 15.0719 17.7303 15.0033C17.5576 14.9467 17.3798 14.9215 17.207 14.9215C16.686 14.9251 16.2226 15.1331 15.8345 15.432C15.4483 15.735 15.1283 16.1428 14.9432 16.6336C14.9199 16.6962 14.8974 16.7446 14.8769 16.7849C14.3175 16.4242 12.9404 15.4019 10.9142 12.9977C9.52253 11.3459 8.71994 10.1041 8.2697 9.29053C8.06495 8.91942 7.93558 8.64197 7.85378 8.45048C7.89723 8.4368 7.94889 8.42306 8.01517 8.41073C8.57776 8.30152 9.07004 8.01947 9.44851 7.641C9.63728 7.45041 9.79811 7.23328 9.91651 6.98883C10.0339 6.74475 10.1103 6.47006 10.1103 6.17663C10.1103 6.09806 10.1048 6.01941 10.0934 5.93991C10.072 5.79455 10.0358 5.65148 9.98833 5.48189C9.82192 4.89731 9.4997 4.02619 9.13909 3.16645C8.95904 2.73727 8.76981 2.3145 8.58559 1.93744C8.40048 1.55944 8.22498 1.23127 8.04995 0.968953C7.79861 0.592359 7.44709 0.335484 7.09426 0.191953C6.74003 0.0466406 6.38495 0.000421875 6.06315 0C5.7633 0 5.48955 0.0402187 5.25503 0.0968906C5.13756 0.125203 5.03012 0.158109 4.93145 0.194719C4.8318 0.232172 4.74311 0.270562 4.6472 0.327656L4.64856 0.326766C4.64856 0.326766 4.6472 0.327656 4.64673 0.328125L4.6225 0.287906L4.62892 0.338156C4.59325 0.358734 4.51558 0.402609 4.42051 0.45975C3.99958 0.712969 3.17594 1.2532 2.43873 2.1458C1.70242 3.03478 1.05203 4.30814 1.05433 5.93663C1.05433 6.28397 1.08358 6.64687 1.1462 7.02398C1.83091 11.1393 3.76745 14.5394 5.97545 17.1596C8.18345 19.7795 11.2059 22.2659 15.1463 23.6379C15.8716 23.8903 16.5654 24 17.2112 24C18.7643 23.9995 20.0062 23.3733 20.8667 22.7371C21.2992 22.4181 21.641 22.094 21.891 21.8317C22.0158 21.7005 22.1177 21.5849 22.1949 21.4943C22.2708 21.4057 22.3289 21.3339 22.3394 21.3221C22.4304 21.2146 22.4934 21.1118 22.5602 20.9889C22.7503 20.6255 22.9413 20.1022 22.9459 19.4783C22.9458 19.2155 22.9079 18.9336 22.8046 18.6525ZM2.45828 5.93667C2.45875 5.21911 2.61644 4.61259 2.85916 4.08558C3.22159 3.29719 3.78695 2.68927 4.29569 2.26514C4.54937 2.05308 4.78703 1.88808 4.97397 1.76831C5.0672 1.70841 5.14811 1.66045 5.21256 1.62253C5.27744 1.58456 5.32131 1.56033 5.36659 1.53338C5.37615 1.52653 5.48265 1.48359 5.61109 1.45519C5.7423 1.42552 5.90406 1.40358 6.06315 1.40405C6.24644 1.40311 6.42283 1.43283 6.55853 1.48992C6.69615 1.54842 6.7944 1.62066 6.88398 1.75186C7.01242 1.94156 7.20208 2.29439 7.3968 2.70483C7.69117 3.32367 8.0088 4.08511 8.25789 4.74877C8.3822 5.08012 8.49011 5.38777 8.56872 5.63733C8.64775 5.88323 8.69762 6.08658 8.704 6.14053L8.70629 6.17663C8.70676 6.22322 8.69354 6.29273 8.65239 6.37819C8.59206 6.50569 8.46634 6.66019 8.30186 6.78263C8.13775 6.90605 7.93937 6.99656 7.7529 7.0313C7.50334 7.07883 7.28945 7.14877 7.10434 7.24289C6.82736 7.38136 6.61708 7.58709 6.50054 7.79916C6.38172 8.01122 6.35753 8.20781 6.35795 8.32388L6.36161 8.40338L6.38355 8.52038C6.41509 8.63602 6.95303 10.4761 9.84072 13.9027C12.7284 17.3292 14.4506 18.1711 14.5594 18.2218L14.6782 18.2653C14.7257 18.2776 14.8067 18.294 14.9163 18.294C15.1082 18.2978 15.3985 18.2301 15.6499 18.029C15.9035 17.8298 16.107 17.5308 16.2583 17.1259C16.3382 16.9078 16.5055 16.688 16.6975 16.5399C16.8886 16.3882 17.0956 16.3224 17.2071 16.326L17.2962 16.3384C17.3296 16.3489 17.4316 16.39 17.5577 16.4513C18.0102 16.667 18.8014 17.1218 19.5473 17.5985C19.9216 17.8371 20.2873 18.0825 20.5989 18.3074C20.9102 18.5309 21.1707 18.7388 21.3156 18.8773C21.401 18.9596 21.4504 19.041 21.4869 19.1383C21.5231 19.2352 21.5418 19.3499 21.5418 19.4783C21.5427 19.6794 21.492 19.9093 21.4239 20.0949C21.3905 20.1873 21.353 20.2686 21.322 20.3271L21.2827 20.3948L21.2744 20.4067C21.2328 20.4555 21.193 20.5054 21.1268 20.5831C20.9024 20.8472 20.4294 21.361 19.7574 21.7988C19.0847 22.2381 18.2319 22.5955 17.2112 22.596C16.7226 22.5955 16.1915 22.5146 15.6078 22.3117C11.9592 21.042 9.13501 18.7297 7.0495 16.2547C4.96394 13.7794 3.1645 10.6047 2.53103 6.79373C2.48073 6.49059 2.45828 6.20587 2.45828 5.93667Z" fill="white"/>
</g>
<defs>
<clipPath id="clip0">
<rect width="24" height="24" fill="white"/>
</clipPath>
</defs>
</svg>
